<svg version="1.1" id="Layer_1" xmlns="http://www.w3.org/2000/svg" xmlns:xlink="http://www.w3.org/1999/xlink" x="0px" y="0px"
	 width="100%" viewBox="0 0 992 736" enable-background="new 0 0 992 736" xml:space="preserve">
<path fill="#000000" opacity="1.000000" stroke="none" 
	d="
M736.775269,472.073425 
	C740.442261,470.827820 739.366333,472.959839 738.761353,474.440582 
	C736.053284,481.069000 733.403748,487.727203 730.469177,494.256073 
	C720.498413,516.438599 707.640747,536.811462 691.534973,555.054565 
	C689.057800,557.860413 688.031128,560.922913 687.314331,564.390869 
	C686.106873,570.233154 683.534729,572.248108 677.670044,572.384766 
	C676.171448,572.419678 674.652954,572.322327 673.178162,572.530579 
	C667.642395,573.312012 666.474060,574.885864 667.370850,580.773010 
	C664.099304,580.087524 661.337158,577.410095 657.868469,578.792664 
	C654.836243,580.001160 651.430786,580.309265 648.347595,582.730408 
	C651.834412,587.802063 657.499329,591.905518 655.762390,599.460815 
	C651.832947,598.046936 650.617188,593.991516 647.222534,592.116638 
	C643.364746,593.562866 640.336609,596.384521 637.469299,599.380249 
	C632.862122,604.193909 628.393066,609.140808 623.743958,613.912964 
	C621.240784,616.482483 621.219360,619.570496 621.320251,622.761353 
	C621.396484,625.169983 621.080688,626.928589 617.883789,626.910217 
	C606.478027,626.844727 606.484192,626.924561 605.256409,638.009705 
	C605.189087,638.617615 604.860291,639.196533 604.598816,639.944336 
	C600.751282,639.787170 599.022400,636.965698 597.114563,634.560547 
	C594.628784,631.426880 591.995056,629.641357 587.681030,631.149353 
	C584.097290,632.402039 580.191956,632.709595 576.549133,633.826965 
	C573.765930,634.680725 570.098572,634.859558 570.865051,639.703247 
	C571.150940,641.510376 568.984619,642.229980 567.172241,642.184753 
	C564.617004,642.121033 562.292847,641.268311 560.099792,639.977600 
	C551.127869,634.696960 541.991699,631.731812 531.090637,633.794983 
	C525.937561,634.770203 520.091614,632.004944 514.546814,631.004639 
	C499.134705,628.224365 483.692230,629.431458 468.258942,630.771118 
	C464.120789,631.130249 459.998230,631.690796 455.878754,632.236267 
	C451.538849,632.810974 447.525116,633.052307 448.783386,626.072144 
	C445.431610,627.698853 443.002472,626.787292 440.514648,625.118774 
	C428.580414,617.114502 415.390839,611.375549 402.873657,604.420410 
	C399.266693,602.416199 395.376343,603.158691 391.635223,602.647095 
	C382.841156,601.444702 374.826447,598.593445 368.041779,592.751221 
	C363.351349,588.712341 357.752533,587.593140 351.808319,587.326782 
	C346.505493,587.089172 341.137543,588.068970 335.903259,586.520142 
	C319.654510,581.711914 312.209869,569.204773 307.748322,554.165588 
	C306.805328,550.986877 306.346741,547.667725 305.555969,544.440002 
	C304.521545,540.217957 302.513580,536.612610 298.248016,534.934021 
	C296.157928,534.111450 295.147491,532.726135 294.489471,530.683716 
	C285.835358,503.822998 273.427032,478.511536 262.081360,452.770477 
	C258.239594,444.054199 255.878494,435.250244 256.429626,425.728119 
	C256.573212,423.247223 256.396820,421.011444 260.150391,420.499725 
	C264.280457,419.936676 262.982422,416.075653 262.585480,413.537872 
	C260.831116,402.321472 257.636749,391.479767 253.285324,380.991241 
	C250.028732,373.141632 246.521072,365.403778 242.335205,357.999268 
	C240.857162,355.384674 240.687271,352.852844 241.254852,349.872559 
	C244.298981,333.888367 246.091797,317.697845 249.401321,301.742218 
	C253.761810,280.719666 263.928009,263.323090 280.225159,249.379990 
	C285.030304,245.268875 289.434113,240.691895 294.093750,236.406570 
	C300.601349,230.421722 305.641907,223.571594 307.817078,214.807480 
	C308.582306,211.724060 310.149933,208.907013 312.439850,206.616501 
	C326.693817,192.358963 340.703461,177.852097 356.096100,164.773300 
	C360.882782,160.706192 366.052429,158.966690 372.251312,160.241516 
	C374.029053,160.607132 375.905884,160.462082 377.710754,160.729889 
	C383.270020,161.554779 386.638458,159.865402 389.358856,154.291962 
	C395.191559,142.342163 406.155670,137.068604 419.347046,138.483566 
	C422.056702,138.774216 424.308502,137.728149 426.228424,136.098923 
	C430.035095,132.868546 433.651733,129.415344 437.408539,126.124603 
	C439.484222,124.306396 441.537018,121.489105 444.680603,123.213837 
	C447.358734,124.683167 446.093079,127.667305 446.014679,130.085373 
	C445.994537,130.706024 446.011658,131.327866 446.011658,132.634811 
	C456.547302,125.920334 467.300415,120.774460 478.534515,116.640106 
	C482.753693,115.087364 487.090637,113.771950 491.134613,111.845917 
	C496.816162,109.139992 501.430695,110.784378 505.790558,114.503563 
	C508.957611,117.205193 511.915710,120.259117 516.677612,119.661789 
	C518.117188,119.481224 518.776978,120.567062 518.896667,121.840492 
	C519.869751,132.194565 518.073364,140.704468 505.099335,140.298767 
	C487.203247,139.739166 469.523865,140.716888 452.290894,146.251602 
	C436.307617,151.384949 421.632507,159.159927 407.285889,167.683899 
	C398.263000,173.044815 389.218445,178.370056 380.145416,183.645660 
	C368.318237,190.522690 359.324188,200.751877 349.379883,209.813736 
	C334.320648,223.536560 320.383911,238.318054 309.885529,255.995132 
	C299.073822,274.199829 293.069519,293.848969 291.186066,314.949280 
	C289.590271,332.827393 287.269012,350.641144 285.214966,368.477173 
	C285.065521,369.774719 284.779602,371.238342 284.047272,372.258911 
	C276.561615,382.690674 278.851990,394.038544 280.694305,405.397125 
	C281.778137,412.079376 282.632416,418.798889 283.628082,425.768463 
	C280.861176,426.273499 277.772430,424.972687 277.054321,428.470520 
	C276.498535,431.177521 277.708832,433.347534 279.326843,435.314911 
	C281.281860,437.692078 282.869446,435.074921 284.667938,434.784790 
	C286.546417,435.646088 286.936279,437.553833 287.637360,439.189789 
	C289.539673,443.628662 291.587036,448.025299 293.154877,452.583832 
	C297.958160,466.549469 305.852509,478.398010 316.058624,489.066315 
	C339.583649,513.656738 365.423767,535.808350 389.676178,559.627014 
	C393.473938,563.356873 397.713043,559.919678 401.679016,558.857300 
	C402.931976,558.521667 403.456879,556.829834 405.296875,556.999451 
	C407.142700,561.355469 403.528320,563.392639 401.127563,566.387573 
	C412.441101,573.766296 424.506744,579.240784 437.936432,580.574036 
	C460.787018,582.842407 483.565308,585.351196 505.846893,591.177246 
	C510.655701,592.434692 514.914185,589.666565 519.502014,589.182129 
	C524.949524,588.606995 530.327637,587.163086 535.777466,586.871094 
	C544.204224,586.419617 548.769470,581.936829 551.827087,574.477295 
	C552.964294,571.702942 555.942505,569.718262 553.144958,565.933960 
	C557.535645,567.517822 558.792480,571.244629 561.642273,574.050110 
	C563.597351,570.560486 569.599060,571.844727 569.187256,566.641418 
	C571.499084,565.276367 572.026672,567.969360 573.917175,567.618103 
	C576.000610,561.881958 580.810364,563.610107 585.104858,563.926025 
	C587.129883,565.193481 585.383118,568.077393 587.808899,569.257263 
	C591.424927,569.020508 593.064148,565.084106 596.357422,564.000549 
	C604.142761,570.128723 604.373108,570.127380 613.055603,564.521790 
	C644.304565,544.347046 674.057678,522.106995 703.349426,499.224915 
	C704.754944,498.126984 706.341431,495.604523 708.836609,498.483765 
	C709.197327,497.506317 709.696167,496.154694 710.422668,494.186218 
	C716.268555,497.152985 718.380798,492.866669 720.894348,488.995361 
	C725.104797,482.510559 730.457947,477.045959 736.775269,472.073425 
M287.412018,461.661591 
	C288.168152,463.502960 289.417114,464.784668 292.221863,466.063568 
	C289.667664,460.431793 287.574341,455.816254 285.481018,451.200714 
	C285.902771,454.557251 287.013336,457.643280 287.412018,461.661591 
z"/>
<path fill="#000000" opacity="1.000000" stroke="none" 
	d="
M747.683411,357.144531 
	C748.181580,352.042755 748.670105,347.421692 749.204224,342.369904 
	C747.303650,342.770752 745.605469,344.648315 743.737366,343.104706 
	C742.049561,341.710114 741.531555,339.813416 741.665161,337.729187 
	C741.830933,335.142212 740.666260,333.408142 738.679321,331.812500 
	C729.629150,324.544830 723.769653,314.893127 718.737854,304.649048 
	C717.739807,302.617157 717.499023,300.591949 718.138245,298.368103 
	C721.766174,285.747101 719.023438,275.702454 707.333801,268.213928 
	C698.369324,262.471191 696.946655,251.947830 693.756409,242.749161 
	C692.124146,238.042770 692.032532,232.990997 691.403503,227.850037 
	C690.546204,227.931641 689.782166,227.778580 689.315613,228.082336 
	C681.324219,233.285339 674.788818,230.861496 667.545044,225.553711 
	C644.979248,209.018951 622.329651,192.578049 598.639465,177.628738 
	C588.554565,171.264832 578.431335,166.016159 566.096924,165.103439 
	C557.205017,164.445480 549.191162,160.210678 542.739990,153.703827 
	C539.065979,149.998062 536.383667,145.781342 538.314392,140.300842 
	C540.292236,134.686508 544.691833,132.763382 550.423340,132.506668 
	C554.085632,132.342606 557.697205,131.806122 561.318481,132.721497 
	C562.897278,133.120560 564.198975,132.962860 565.178467,131.379639 
	C567.364136,127.846992 570.933350,127.205528 574.713562,126.959854 
	C618.675598,124.102859 655.035767,140.459061 685.624084,171.084167 
	C694.308655,179.779236 699.372498,191.089081 705.928833,201.296280 
	C717.451660,219.235794 728.253296,237.643372 739.972839,255.449585 
	C745.402466,263.699188 744.881409,272.855103 746.239075,281.747528 
	C748.714172,297.958160 749.913818,314.313538 750.400085,331.308929 
	C754.582886,329.493927 754.906616,324.258423 760.277588,323.437561 
	C754.058777,341.329224 751.364319,359.335846 749.521240,377.596741 
	C746.317688,371.167480 748.161438,364.277527 747.683411,357.144531 
z"/>
<path fill="#000000" opacity="1.000000" stroke="none" 
	d="
M438.639771,366.517090 
	C440.622375,370.907867 441.425720,375.402679 444.452637,379.858276 
	C448.974182,366.423065 455.258118,354.501099 460.750000,342.222687 
	C461.903137,339.644592 463.244812,337.840057 466.563629,337.728058 
	C475.013519,337.442902 475.262390,337.527283 475.261505,346.011108 
	C475.259338,366.836670 475.269501,387.662231 475.241516,408.487732 
	C475.238007,411.107849 475.691833,413.967346 471.580566,414.240356 
	C467.446564,414.514832 465.524017,413.350311 465.583160,408.745331 
	C465.801392,391.754364 465.694550,374.759277 465.709503,357.765717 
	C465.710938,356.171051 465.709686,354.576385 465.709686,351.672729 
	C458.409607,366.814331 451.687134,380.757904 444.964630,394.701477 
	C444.425415,394.708252 443.886169,394.715027 443.346924,394.721802 
	C436.567505,380.759460 429.788055,366.797089 422.331329,351.439880 
	C422.331329,354.710510 422.330780,356.597656 422.331421,358.484772 
	C422.337067,374.812012 422.374054,391.139343 422.321228,407.466400 
	C422.311188,410.570618 423.508331,414.373260 417.870697,414.303497 
	C412.753815,414.240173 412.910492,411.109222 412.913513,407.607544 
	C412.931702,386.448792 412.881165,365.289886 412.951385,344.131409 
	C412.959503,341.684265 411.989471,338.027435 416.023743,337.967499 
	C419.838593,337.910828 424.525452,335.861176 426.945068,341.235779 
	C430.704102,349.585602 434.622253,357.863739 438.639771,366.517090 
z"/>
<path fill="#000000" opacity="1.000000" stroke="none" 
	d="
M656.461792,343.444824 
	C656.426025,365.187714 656.444885,386.519196 656.327759,407.849976 
	C656.315613,410.070679 657.630859,413.529999 653.920837,413.946045 
	C650.186890,414.364746 645.997314,415.633636 643.558533,410.602173 
	C634.261963,391.422394 623.362061,373.033691 615.253967,353.264038 
	C615.006775,352.661407 614.676514,352.092865 614.332275,351.402863 
	C614.332275,370.712952 614.257874,389.875793 614.394531,409.037170 
	C614.422119,412.907959 613.173767,414.475189 609.209167,414.268066 
	C606.036255,414.102295 604.753723,412.851227 604.760010,409.698578 
	C604.805054,387.199738 604.774841,364.700684 604.768127,342.201721 
	C604.767456,340.073425 605.024902,337.906494 607.739929,337.903931 
	C611.527161,337.900299 615.668152,336.439697 618.126099,341.418427 
	C624.984131,355.309631 632.208069,369.019684 639.167786,382.861511 
	C641.991821,388.478058 644.506104,394.250397 647.402893,400.470398 
	C647.402893,381.161377 647.528381,362.438568 647.305725,343.719910 
	C647.256226,339.560364 647.967163,337.484985 652.651367,337.686768 
	C656.683411,337.860413 656.808777,340.109711 656.461792,343.444824 
z"/>
<path fill="#000000" opacity="1.000000" stroke="none" 
	d="
M501.341431,395.936737 
	C501.442291,406.862793 500.162476,405.562714 510.785278,405.639923 
	C517.282349,405.687164 523.781433,405.739624 530.276794,405.628296 
	C533.304565,405.576416 534.390747,406.823212 534.345093,409.795502 
	C534.302429,412.569641 533.620422,414.249176 530.455933,414.232300 
	C518.960999,414.170929 507.465454,414.177429 495.970337,414.214294 
	C493.103455,414.223511 491.679565,413.092041 491.685242,410.077667 
	C491.728271,387.253632 491.726105,364.429504 491.699768,341.605438 
	C491.696533,338.802765 493.092834,337.777161 495.719086,337.782440 
	C507.214355,337.805481 518.710022,337.828735 530.204895,337.753204 
	C533.609741,337.730835 534.333008,339.512329 534.348938,342.494659 
	C534.366028,345.693420 532.782471,346.414551 529.995361,346.387390 
	C521.999390,346.309357 514.000610,346.465546 506.005920,346.338684 
	C502.602753,346.284698 501.171265,347.521790 501.296936,351.015350 
	C501.482452,356.173340 501.496124,361.348602 501.297455,366.505524 
	C501.158783,370.104736 502.786987,371.133881 506.093536,371.074097 
	C513.088318,370.947601 520.087219,371.065063 527.084351,371.043182 
	C530.320068,371.033081 532.448608,371.778687 532.366455,375.805786 
	C532.287964,379.647461 530.188843,380.123474 527.200867,380.100067 
	C520.204163,380.045288 513.203979,380.180359 506.210907,380.007751 
	C502.576447,379.918060 501.038116,381.217224 501.296509,384.958435 
	C501.536987,388.440277 501.343323,391.952148 501.341431,395.936737 
z"/>
<path fill="#000000" opacity="1.000000" stroke="none" 
	d="
M558.175354,398.828735 
	C557.369812,404.361725 559.459290,406.040497 564.554260,405.753632 
	C571.861267,405.342316 579.210510,405.739929 586.539001,405.623352 
	C589.688660,405.573273 591.117493,406.734985 591.101257,409.973969 
	C591.084717,413.290100 589.424194,414.262878 586.393799,414.242310 
	C575.232056,414.166504 564.069092,414.153564 552.907471,414.234314 
	C549.668762,414.257751 548.552917,412.883209 548.563354,409.718170 
	C548.637390,387.227325 548.630310,364.735992 548.561462,342.245117 
	C548.551758,339.059601 549.789001,337.740967 552.982361,337.762421 
	C564.144104,337.837402 575.306885,337.825287 586.468689,337.756470 
	C589.589478,337.737244 591.041565,339.011963 591.087830,342.188538 
	C591.136353,345.522247 589.482971,346.450134 586.420898,346.403198 
	C578.759094,346.285736 571.089722,346.524963 563.432434,346.306732 
	C559.649719,346.198944 557.890991,347.233368 558.119080,351.334167 
	C558.396179,356.316895 558.308655,361.330414 558.149292,366.323273 
	C558.040283,369.739044 559.372375,371.133698 562.822937,371.070648 
	C569.817444,370.942871 576.816467,371.055267 583.813599,371.066528 
	C586.734985,371.071228 589.061951,371.551727 589.081726,375.372009 
	C589.101807,379.253296 587.062073,380.157135 583.705200,380.103333 
	C577.209473,379.999268 570.696228,380.334442 564.218262,379.978058 
	C559.258423,379.705231 557.732910,381.691254 558.100037,386.363983 
	C558.412292,390.338104 558.169189,394.355865 558.175354,398.828735 
z"/>
<path fill="#000000" opacity="1.000000" stroke="none" 
	d="
M347.297180,414.132507 
	C344.437805,413.571472 344.789307,411.955658 345.325409,410.240601 
	C352.515594,387.238037 359.727203,364.242157 366.862183,341.222473 
	C368.095642,337.242859 371.197937,337.827271 374.156250,337.782318 
	C376.904602,337.740509 379.345520,337.759033 380.419189,341.216980 
	C387.564362,364.229187 394.849518,387.197937 402.066956,410.187805 
	C402.411377,411.284912 402.673492,412.456543 401.865051,413.519714 
	C394.494446,415.192017 393.500610,414.638153 391.562775,407.781006 
	C386.929321,391.385223 386.928558,391.290436 370.044342,391.424988 
	C359.376984,391.510010 361.167175,389.367432 357.792633,400.636108 
	C357.029938,403.183044 356.001373,405.684998 355.562195,408.286499 
	C354.785797,412.885681 352.506226,415.092377 347.297180,414.132507 
M373.571594,348.759583 
	C369.347656,359.836548 366.539978,371.312408 362.932617,383.627686 
	C369.199463,383.627686 374.457489,383.565308 379.713135,383.649841 
	C383.144928,383.705048 384.121948,382.442841 383.059357,379.062805 
	C379.925140,369.093018 376.997192,359.058411 373.571594,348.759583 
z"/>
</svg>